# MagicaVoxel @ Ephtracy

# group
o 

# material
mtllib tree_2.mtl
usemtl palette

# normals
vn -1 0 0
vn 1 0 0
vn 0 0 1
vn 0 0 -1
vn 0 -1 0
vn 0 1 0

# texcoords
vt 0.939453 0.5
vt 0.943359 0.5
vt 0.970703 0.5
vt 0.978516 0.5
vt 0.982422 0.5
vt 0.986328 0.5
vt 0.990234 0.5
vt 0.994141 0.5

# verts
v -0.5 1.1 -0.2
v -0.5 1.1 -0.5
v -0.5 1.3 -0.4
v -0.5 1.3 -0.5
v -0.5 1.4 -0.2
v -0.5 1.4 -0.4
v -0.5 1.5 0.5
v -0.5 1.5 0.3
v -0.5 1.5 -0.2
v -0.5 1.5 -0.5
v -0.5 1.7 0.5
v -0.5 1.7 0.4
v -0.5 1.7 -0.2
v -0.5 1.7 -0.5
v -0.5 1.8 0.4
v -0.5 1.8 0.3
v -0.5 1.8 -0.4
v -0.5 1.8 -0.5
v -0.5 1.9 0.5
v -0.5 1.9 0.3
v -0.5 1.9 -0.2
v -0.5 1.9 -0.4
v -0.5 2 -0.2
v -0.5 2 -0.5
v -0.4 0.7 0.4
v -0.4 0.7 -0.4
v -0.4 1.1 0.1
v -0.4 1.1 -0.2
v -0.4 1.1 -0.4
v -0.4 1.2 0.4
v -0.4 1.2 0.1
v -0.4 1.3 0.4
v -0.4 1.3 -0.2
v -0.4 1.4 0.4
v -0.4 1.4 -0.2
v -0.4 1.5 0.4
v -0.4 1.5 0.3
v -0.4 1.5 -0.2
v -0.4 1.5 -0.4
v -0.4 1.6 0.3
v -0.4 1.6 -0.4
v -0.4 1.7 0.3
v -0.4 1.7 -0.2
v -0.4 1.7 -0.4
v -0.4 1.8 0.3
v -0.4 1.9 0.4
v -0.4 1.9 0.3
v -0.4 1.9 -0.2
v -0.4 2 -0.2
v -0.4 2 -0.4
v -0.4 2.2 0.4
v -0.4 2.2 -0.4
v -0.3 2.2 0.3
v -0.3 2.2 -0.3
v -0.3 2.3 0.3
v -0.3 2.3 -0.3
v -0.2 0 0.2
v -0.2 0 -0.2
v -0.2 0.7 0.2
v -0.2 0.7 -0.2
v -0.2 2.3 0.2
v -0.2 2.3 -0.2
v -0.2 2.4 0.2
v -0.2 2.4 -0.2
v 0.1 1.3 0.5
v 0.1 1.3 0.4
v 0.1 1.4 0.4
v 0.1 1.5 0.4
v 0.1 1.6 0.4
v 0.1 1.7 0.5
v 0.1 1.7 0.4
v 0.1 1.8 0.5
v 0.1 1.8 0.4
v 0.2 1.2 -0.4
v 0.2 1.2 -0.5
v 0.2 1.3 -0.4
v 0.2 1.4 -0.4
v 0.2 1.5 -0.4
v 0.2 1.6 -0.4
v 0.2 1.7 -0.4
v 0.2 2 -0.4
v 0.2 2 -0.5
v 0.2 2.1 -0.4
v 0.2 2.1 -0.5
v -0.3 1.5 0.5
v -0.3 1.5 0.4
v -0.3 1.6 0.4
v -0.3 1.7 0.4
v -0.3 1.8 0.5
v -0.3 1.8 0.4
v -0.3 1.9 0.5
v -0.3 1.9 0.4
v -0.2 1.1 -0.4
v -0.2 1.1 -0.5
v -0.2 1.3 -0.4
v -0.2 1.4 -0.4
v -0.2 1.4 -0.5
v -0.2 1.5 -0.4
v -0.2 1.5 -0.5
v -0.2 1.7 -0.4
v -0.2 1.7 -0.5
v -0.2 1.9 -0.4
v -0.2 1.9 -0.5
v -0.2 2 -0.4
v -0.2 2 -0.5
v 0.2 0 0.2
v 0.2 0 -0.2
v 0.2 0.7 0.2
v 0.2 0.7 -0.2
v 0.2 2.3 0.2
v 0.2 2.3 -0.2
v 0.2 2.4 0.2
v 0.2 2.4 -0.2
v 0.3 2.2 0.3
v 0.3 2.2 -0.3
v 0.3 2.3 0.3
v 0.3 2.3 -0.3
v 0.4 0.7 0.4
v 0.4 0.7 -0.4
v 0.4 1.1 0
v 0.4 1.1 -0.4
v 0.4 1.2 0.4
v 0.4 1.2 0
v 0.4 1.2 -0.3
v 0.4 1.2 -0.4
v 0.4 1.3 0.4
v 0.4 1.3 0.1
v 0.4 1.3 -0.3
v 0.4 1.4 0.1
v 0.4 1.4 -0.3
v 0.4 1.5 0.1
v 0.4 1.5 -0.3
v 0.4 1.6 0.1
v 0.4 1.6 -0.3
v 0.4 1.7 0.1
v 0.4 1.7 -0.3
v 0.4 1.8 0.4
v 0.4 1.8 0.1
v 0.4 2 -0.3
v 0.4 2.1 -0.3
v 0.4 2.1 -0.4
v 0.4 2.2 0.4
v 0.4 2.2 -0.4
v 0.5 1.2 -0.3
v 0.5 1.2 -0.5
v 0.5 1.3 0.5
v 0.5 1.3 0.1
v 0.5 1.6 0.5
v 0.5 1.6 0.3
v 0.5 1.7 0.3
v 0.5 1.7 0.1
v 0.5 1.8 0.5
v 0.5 1.8 0.1
v 0.5 1.9 -0.4
v 0.5 1.9 -0.5
v 0.5 2 -0.3
v 0.5 2 -0.4
v 0.5 2.1 -0.3
v 0.5 2.1 -0.5
v -0.5 1.5 0.5
v -0.5 1.7 0.5
v -0.5 1.9 0.5
v -0.4 1.7 0.5
v -0.4 1.8 0.5
v -0.3 1.5 0.5
v -0.3 1.8 0.5
v -0.3 1.9 0.5
v 0.1 1.3 0.5
v 0.1 1.7 0.5
v 0.1 1.8 0.5
v 0.3 1.6 0.5
v 0.3 1.7 0.5
v 0.5 1.3 0.5
v 0.5 1.6 0.5
v 0.5 1.8 0.5
v -0.4 0.7 0.4
v -0.4 1.2 0.4
v -0.4 1.3 0.4
v -0.4 1.4 0.4
v -0.4 1.5 0.4
v -0.4 1.9 0.4
v -0.4 2.2 0.4
v -0.3 1.5 0.4
v -0.3 1.6 0.4
v -0.3 1.7 0.4
v -0.3 1.8 0.4
v -0.3 1.9 0.4
v 0.1 1.3 0.4
v 0.1 1.4 0.4
v 0.1 1.5 0.4
v 0.1 1.6 0.4
v 0.1 1.7 0.4
v 0.1 1.8 0.4
v 0.4 0.7 0.4
v 0.4 1.2 0.4
v 0.4 1.3 0.4
v 0.4 1.8 0.4
v 0.4 2.2 0.4
v -0.3 2.2 0.3
v -0.3 2.3 0.3
v 0.3 2.2 0.3
v 0.3 2.3 0.3
v -0.2 0 0.2
v -0.2 0.7 0.2
v -0.2 2.3 0.2
v -0.2 2.4 0.2
v 0.2 0 0.2
v 0.2 0.7 0.2
v 0.2 2.3 0.2
v 0.2 2.4 0.2
v -0.5 1.1 -0.2
v -0.5 1.4 -0.2
v -0.5 1.5 -0.2
v -0.5 1.7 -0.2
v -0.5 1.9 -0.2
v -0.5 2 -0.2
v -0.4 1.1 -0.2
v -0.4 1.3 -0.2
v -0.4 1.4 -0.2
v -0.4 1.5 -0.2
v -0.4 1.7 -0.2
v -0.4 1.9 -0.2
v -0.4 2 -0.2
v 0.4 1.2 -0.3
v 0.4 1.3 -0.3
v 0.4 1.4 -0.3
v 0.4 1.5 -0.3
v 0.4 1.6 -0.3
v 0.4 1.7 -0.3
v 0.4 2 -0.3
v 0.4 2.1 -0.3
v 0.5 1.2 -0.3
v 0.5 2 -0.3
v 0.5 2.1 -0.3
v -0.5 1.5 0.3
v -0.5 1.8 0.3
v -0.5 1.9 0.3
v -0.4 1.5 0.3
v -0.4 1.6 0.3
v -0.4 1.7 0.3
v -0.4 1.8 0.3
v -0.4 1.9 0.3
v 0.4 1.3 0.1
v 0.4 1.4 0.1
v 0.4 1.5 0.1
v 0.4 1.6 0.1
v 0.4 1.7 0.1
v 0.4 1.8 0.1
v 0.5 1.3 0.1
v 0.5 1.7 0.1
v 0.5 1.8 0.1
v -0.2 0 -0.2
v -0.2 0.7 -0.2
v -0.2 2.3 -0.2
v -0.2 2.4 -0.2
v 0.2 0 -0.2
v 0.2 0.7 -0.2
v 0.2 2.3 -0.2
v 0.2 2.4 -0.2
v -0.3 2.2 -0.3
v -0.3 2.3 -0.3
v 0.3 2.2 -0.3
v 0.3 2.3 -0.3
v -0.4 0.7 -0.4
v -0.4 1.1 -0.4
v -0.4 1.5 -0.4
v -0.4 1.6 -0.4
v -0.4 1.7 -0.4
v -0.4 2 -0.4
v -0.4 2.2 -0.4
v -0.2 1.1 -0.4
v -0.2 1.3 -0.4
v -0.2 1.4 -0.4
v -0.2 1.5 -0.4
v -0.2 1.7 -0.4
v -0.2 1.9 -0.4
v -0.2 2 -0.4
v 0.2 1.2 -0.4
v 0.2 1.3 -0.4
v 0.2 1.4 -0.4
v 0.2 1.5 -0.4
v 0.2 1.6 -0.4
v 0.2 1.7 -0.4
v 0.2 2 -0.4
v 0.2 2.1 -0.4
v 0.4 0.7 -0.4
v 0.4 1.1 -0.4
v 0.4 1.2 -0.4
v 0.4 2.1 -0.4
v 0.4 2.2 -0.4
v -0.5 1.1 -0.5
v -0.5 1.3 -0.5
v -0.5 1.5 -0.5
v -0.5 1.7 -0.5
v -0.5 1.8 -0.5
v -0.5 2 -0.5
v -0.4 1.3 -0.5
v -0.4 1.4 -0.5
v -0.4 1.8 -0.5
v -0.4 1.9 -0.5
v -0.2 1.1 -0.5
v -0.2 1.4 -0.5
v -0.2 1.5 -0.5
v -0.2 1.7 -0.5
v -0.2 1.9 -0.5
v -0.2 2 -0.5
v 0.2 1.2 -0.5
v 0.2 2 -0.5
v 0.2 2.1 -0.5
v 0.3 1.9 -0.5
v 0.3 2 -0.5
v 0.5 1.2 -0.5
v 0.5 1.9 -0.5
v 0.5 2.1 -0.5
v -0.2 0 0.2
v 0.2 0 0.2
v -0.2 0 -0.2
v 0.2 0 -0.2
v -0.4 0.7 0.4
v 0.4 0.7 0.4
v -0.2 0.7 0.2
v 0.2 0.7 0.2
v -0.2 0.7 -0.2
v 0.2 0.7 -0.2
v -0.4 0.7 -0.4
v 0.4 0.7 -0.4
v -0.5 1.1 -0.2
v -0.4 1.1 -0.2
v -0.4 1.1 -0.4
v -0.2 1.1 -0.4
v -0.5 1.1 -0.5
v -0.2 1.1 -0.5
v 0.4 1.2 -0.3
v 0.5 1.2 -0.3
v 0.2 1.2 -0.4
v 0.4 1.2 -0.4
v 0.2 1.2 -0.5
v 0.5 1.2 -0.5
v 0.1 1.3 0.5
v 0.5 1.3 0.5
v 0.1 1.3 0.4
v 0.4 1.3 0.4
v 0.4 1.3 0.1
v 0.5 1.3 0.1
v -0.5 1.5 0.5
v -0.3 1.5 0.5
v -0.4 1.5 0.4
v -0.3 1.5 0.4
v -0.5 1.5 0.3
v -0.4 1.5 0.3
v -0.5 1.7 -0.2
v -0.4 1.7 -0.2
v -0.4 1.7 -0.4
v -0.2 1.7 -0.4
v -0.5 1.7 -0.5
v -0.2 1.7 -0.5
v -0.5 1.5 -0.2
v -0.4 1.5 -0.2
v -0.4 1.5 -0.4
v -0.2 1.5 -0.4
v -0.5 1.5 -0.5
v -0.2 1.5 -0.5
v 0.1 1.8 0.5
v 0.5 1.8 0.5
v 0.1 1.8 0.4
v 0.4 1.8 0.4
v 0.4 1.8 0.1
v 0.5 1.8 0.1
v -0.5 1.9 0.5
v -0.3 1.9 0.5
v -0.4 1.9 0.4
v -0.3 1.9 0.4
v -0.5 1.9 0.3
v -0.4 1.9 0.3
v -0.5 2 -0.2
v -0.4 2 -0.2
v -0.4 2 -0.4
v -0.2 2 -0.4
v -0.5 2 -0.5
v -0.2 2 -0.5
v 0.4 2.1 -0.3
v 0.5 2.1 -0.3
v 0.2 2.1 -0.4
v 0.4 2.1 -0.4
v 0.2 2.1 -0.5
v 0.5 2.1 -0.5
v -0.4 2.2 0.4
v 0.4 2.2 0.4
v -0.3 2.2 0.3
v 0.3 2.2 0.3
v -0.3 2.2 -0.3
v 0.3 2.2 -0.3
v -0.4 2.2 -0.4
v 0.4 2.2 -0.4
v -0.3 2.3 0.3
v 0.3 2.3 0.3
v -0.2 2.3 0.2
v 0.2 2.3 0.2
v -0.2 2.3 -0.2
v 0.2 2.3 -0.2
v -0.3 2.3 -0.3
v 0.3 2.3 -0.3
v -0.2 2.4 0.2
v 0.2 2.4 0.2
v -0.2 2.4 -0.2
v 0.2 2.4 -0.2

# faces
f 3/4/1 2/4/1 1/4/1
f 4/4/1 2/4/1 3/4/1
f 5/4/1 3/4/1 1/4/1
f 6/6/1 4/6/1 3/6/1
f 6/4/1 3/4/1 5/4/1
f 9/6/1 6/6/1 5/6/1
f 10/6/1 4/6/1 6/6/1
f 10/6/1 6/6/1 9/6/1
f 11/4/1 8/4/1 7/4/1
f 12/4/1 8/4/1 11/4/1
f 15/6/1 12/6/1 11/6/1
f 15/4/1 8/4/1 12/4/1
f 16/4/1 8/4/1 15/4/1
f 17/4/1 14/4/1 13/4/1
f 18/4/1 14/4/1 17/4/1
f 19/6/1 16/6/1 15/6/1
f 19/6/1 15/6/1 11/6/1
f 20/6/1 16/6/1 19/6/1
f 21/4/1 17/4/1 13/4/1
f 22/6/1 18/6/1 17/6/1
f 22/4/1 17/4/1 21/4/1
f 23/6/1 22/6/1 21/6/1
f 24/6/1 18/6/1 22/6/1
f 24/6/1 22/6/1 23/6/1
f 27/3/1 26/3/1 25/3/1
f 28/3/1 26/3/1 27/3/1
f 29/3/1 26/3/1 28/3/1
f 30/3/1 27/3/1 25/3/1
f 31/1/1 28/1/1 27/1/1
f 31/3/1 27/3/1 30/3/1
f 32/1/1 31/1/1 30/1/1
f 33/1/1 28/1/1 31/1/1
f 33/1/1 31/1/1 32/1/1
f 34/8/1 33/8/1 32/8/1
f 35/8/1 33/8/1 34/8/1
f 36/7/1 35/7/1 34/7/1
f 37/7/1 35/7/1 36/7/1
f 38/7/1 35/7/1 37/7/1
f 40/6/1 38/6/1 37/6/1
f 40/6/1 39/6/1 38/6/1
f 41/6/1 39/6/1 40/6/1
f 42/5/1 41/5/1 40/5/1
f 43/5/1 41/5/1 42/5/1
f 44/5/1 41/5/1 43/5/1
f 45/4/1 43/4/1 42/4/1
f 47/4/1 43/4/1 45/4/1
f 48/4/1 43/4/1 47/4/1
f 49/4/1 47/4/1 46/4/1
f 49/4/1 48/4/1 47/4/1
f 51/4/1 49/4/1 46/4/1
f 51/4/1 50/4/1 49/4/1
f 52/4/1 50/4/1 51/4/1
f 55/4/1 54/4/1 53/4/1
f 56/4/1 54/4/1 55/4/1
f 59/2/1 58/2/1 57/2/1
f 60/2/1 58/2/1 59/2/1
f 63/4/1 62/4/1 61/4/1
f 64/4/1 62/4/1 63/4/1
f 67/4/1 66/4/1 65/4/1
f 68/4/1 67/4/1 65/4/1
f 69/4/1 68/4/1 65/4/1
f 70/4/1 69/4/1 65/4/1
f 71/4/1 69/4/1 70/4/1
f 72/7/1 71/7/1 70/7/1
f 73/7/1 71/7/1 72/7/1
f 76/4/1 75/4/1 74/4/1
f 77/4/1 75/4/1 76/4/1
f 78/4/1 75/4/1 77/4/1
f 79/4/1 75/4/1 78/4/1
f 80/4/1 75/4/1 79/4/1
f 81/4/1 75/4/1 80/4/1
f 82/4/1 75/4/1 81/4/1
f 83/7/1 82/7/1 81/7/1
f 84/7/1 82/7/1 83/7/1
f 85/4/2 86/4/2 87/4/2
f 85/4/2 87/4/2 88/4/2
f 85/4/2 88/4/2 89/4/2
f 89/4/2 88/4/2 90/4/2
f 89/6/2 90/6/2 91/6/2
f 91/6/2 90/6/2 92/6/2
f 93/4/2 94/4/2 95/4/2
f 95/4/2 94/4/2 96/4/2
f 96/4/2 94/4/2 97/4/2
f 96/6/2 97/6/2 98/6/2
f 98/6/2 97/6/2 99/6/2
f 100/4/2 101/4/2 102/4/2
f 102/4/2 101/4/2 103/4/2
f 102/6/2 103/6/2 104/6/2
f 104/6/2 103/6/2 105/6/2
f 106/2/2 107/2/2 108/2/2
f 108/2/2 107/2/2 109/2/2
f 110/4/2 111/4/2 112/4/2
f 112/4/2 111/4/2 113/4/2
f 114/4/2 115/4/2 116/4/2
f 116/4/2 115/4/2 117/4/2
f 118/3/2 119/3/2 120/3/2
f 120/3/2 119/3/2 121/3/2
f 118/3/2 120/3/2 122/3/2
f 120/1/2 121/1/2 123/1/2
f 122/3/2 120/3/2 123/3/2
f 123/1/2 121/1/2 124/1/2
f 124/1/2 121/1/2 125/1/2
f 122/1/2 123/1/2 126/1/2
f 123/1/2 124/1/2 126/1/2
f 126/1/2 124/1/2 127/1/2
f 127/1/2 124/1/2 128/1/2
f 127/8/2 128/8/2 129/8/2
f 129/8/2 128/8/2 130/8/2
f 129/7/2 130/7/2 131/7/2
f 131/7/2 130/7/2 132/7/2
f 131/6/2 132/6/2 133/6/2
f 133/6/2 132/6/2 134/6/2
f 133/5/2 134/5/2 135/5/2
f 135/5/2 134/5/2 136/5/2
f 135/4/2 136/4/2 138/4/2
f 138/4/2 136/4/2 139/4/2
f 137/4/2 138/4/2 139/4/2
f 137/4/2 139/4/2 140/4/2
f 137/4/2 140/4/2 142/4/2
f 140/4/2 141/4/2 142/4/2
f 142/4/2 141/4/2 143/4/2
f 146/4/2 147/4/2 148/4/2
f 148/4/2 147/4/2 149/4/2
f 148/7/2 149/7/2 150/7/2
f 149/4/2 147/4/2 150/4/2
f 150/4/2 147/4/2 151/4/2
f 148/7/2 150/7/2 152/7/2
f 150/7/2 151/7/2 152/7/2
f 152/7/2 151/7/2 153/7/2
f 144/4/2 145/4/2 154/4/2
f 154/4/2 145/4/2 155/4/2
f 144/4/2 154/4/2 156/4/2
f 154/7/2 155/7/2 157/7/2
f 156/4/2 154/4/2 157/4/2
f 156/7/2 157/7/2 158/7/2
f 157/7/2 155/7/2 159/7/2
f 158/7/2 157/7/2 159/7/2
f 163/4/3 161/4/3 160/4/3
f 163/6/3 162/6/3 161/6/3
f 164/6/3 162/6/3 163/6/3
f 165/4/3 163/4/3 160/4/3
f 165/4/3 164/4/3 163/4/3
f 166/6/3 162/6/3 164/6/3
f 166/4/3 164/4/3 165/4/3
f 167/6/3 162/6/3 166/6/3
f 171/4/3 169/4/3 168/4/3
f 172/7/3 170/7/3 169/7/3
f 172/4/3 169/4/3 171/4/3
f 173/4/3 171/4/3 168/4/3
f 174/7/3 172/7/3 171/7/3
f 174/4/3 171/4/3 173/4/3
f 175/7/3 170/7/3 172/7/3
f 175/7/3 172/7/3 174/7/3
f 183/7/3 180/7/3 179/7/3
f 187/4/3 182/4/3 181/4/3
f 188/1/3 178/1/3 177/1/3
f 188/8/3 179/8/3 178/8/3
f 189/7/3 183/7/3 179/7/3
f 189/8/3 179/8/3 188/8/3
f 190/6/3 184/6/3 183/6/3
f 190/7/3 183/7/3 189/7/3
f 191/5/3 185/5/3 184/5/3
f 191/6/3 184/6/3 190/6/3
f 192/4/3 187/4/3 186/4/3
f 192/5/3 185/5/3 191/5/3
f 192/4/3 186/4/3 185/4/3
f 193/4/3 187/4/3 192/4/3
f 194/3/3 177/3/3 176/3/3
f 195/1/3 188/1/3 177/1/3
f 195/3/3 177/3/3 194/3/3
f 196/1/3 188/1/3 195/1/3
f 197/4/3 187/4/3 193/4/3
f 198/4/3 182/4/3 187/4/3
f 198/4/3 187/4/3 197/4/3
f 201/4/3 200/4/3 199/4/3
f 202/4/3 200/4/3 201/4/3
f 207/2/3 204/2/3 203/2/3
f 208/2/3 204/2/3 207/2/3
f 209/4/3 206/4/3 205/4/3
f 210/4/3 206/4/3 209/4/3
f 217/4/3 212/4/3 211/4/3
f 218/4/3 212/4/3 217/4/3
f 219/6/3 213/6/3 212/6/3
f 219/4/3 212/4/3 218/4/3
f 220/6/3 213/6/3 219/6/3
f 221/4/3 215/4/3 214/4/3
f 222/6/3 216/6/3 215/6/3
f 222/4/3 215/4/3 221/4/3
f 223/6/3 216/6/3 222/6/3
f 232/4/3 225/4/3 224/4/3
f 232/4/3 226/4/3 225/4/3
f 232/4/3 230/4/3 229/4/3
f 232/4/3 229/4/3 228/4/3
f 232/4/3 228/4/3 227/4/3
f 232/4/3 227/4/3 226/4/3
f 233/7/3 231/7/3 230/7/3
f 233/4/3 230/4/3 232/4/3
f 234/7/3 231/7/3 233/7/3
f 235/4/4 236/4/4 238/4/4
f 238/4/4 236/4/4 239/4/4
f 239/4/4 236/4/4 240/4/4
f 236/6/4 237/6/4 241/6/4
f 240/4/4 236/4/4 241/4/4
f 241/6/4 237/6/4 242/6/4
f 243/4/4 244/4/4 249/4/4
f 244/4/4 245/4/4 249/4/4
f 246/4/4 247/4/4 249/4/4
f 245/4/4 246/4/4 249/4/4
f 247/7/4 248/7/4 250/7/4
f 249/4/4 247/4/4 250/4/4
f 250/7/4 248/7/4 251/7/4
f 252/2/4 253/2/4 256/2/4
f 256/2/4 253/2/4 257/2/4
f 254/4/4 255/4/4 258/4/4
f 258/4/4 255/4/4 259/4/4
f 260/4/4 261/4/4 262/4/4
f 262/4/4 261/4/4 263/4/4
f 264/3/4 265/3/4 271/3/4
f 266/6/4 267/6/4 274/6/4
f 267/5/4 268/5/4 275/5/4
f 269/4/4 270/4/4 277/4/4
f 271/1/4 272/1/4 278/1/4
f 272/8/4 273/8/4 279/8/4
f 278/1/4 272/1/4 279/1/4
f 273/7/4 274/7/4 280/7/4
f 279/8/4 273/8/4 280/8/4
f 274/6/4 267/6/4 281/6/4
f 280/7/4 274/7/4 281/7/4
f 267/5/4 275/5/4 282/5/4
f 281/6/4 267/6/4 282/6/4
f 275/4/4 276/4/4 283/4/4
f 282/5/4 275/5/4 283/5/4
f 276/4/4 277/4/4 283/4/4
f 277/4/4 270/4/4 284/4/4
f 283/4/4 277/4/4 284/4/4
f 284/4/4 270/4/4 285/4/4
f 264/3/4 271/3/4 286/3/4
f 271/1/4 278/1/4 287/1/4
f 286/3/4 271/3/4 287/3/4
f 287/1/4 278/1/4 288/1/4
f 285/4/4 270/4/4 289/4/4
f 289/4/4 270/4/4 290/4/4
f 291/4/4 292/4/4 297/4/4
f 292/6/4 293/6/4 297/6/4
f 297/6/4 293/6/4 298/6/4
f 295/6/4 296/6/4 299/6/4
f 294/4/4 295/4/4 299/4/4
f 299/6/4 296/6/4 300/6/4
f 297/4/4 298/4/4 301/4/4
f 291/4/4 297/4/4 301/4/4
f 298/6/4 293/6/4 302/6/4
f 301/4/4 298/4/4 302/4/4
f 302/6/4 293/6/4 303/6/4
f 299/4/4 300/4/4 304/4/4
f 294/4/4 299/4/4 304/4/4
f 300/6/4 296/6/4 305/6/4
f 304/4/4 300/4/4 305/4/4
f 305/6/4 296/6/4 306/6/4
f 307/4/4 308/4/4 310/4/4
f 308/7/4 309/7/4 311/7/4
f 310/4/4 308/4/4 311/4/4
f 307/4/4 310/4/4 312/4/4
f 310/7/4 311/7/4 313/7/4
f 312/4/4 310/4/4 313/4/4
f 311/7/4 309/7/4 314/7/4
f 313/7/4 311/7/4 314/7/4
f 317/2/5 316/2/5 315/2/5
f 318/2/5 316/2/5 317/2/5
f 321/3/5 320/3/5 319/3/5
f 322/3/5 320/3/5 321/3/5
f 323/3/5 321/3/5 319/3/5
f 324/3/5 320/3/5 322/3/5
f 325/3/5 323/3/5 319/3/5
f 325/3/5 324/3/5 323/3/5
f 326/3/5 320/3/5 324/3/5
f 326/3/5 324/3/5 325/3/5
f 329/4/5 328/4/5 327/4/5
f 331/4/5 329/4/5 327/4/5
f 331/4/5 330/4/5 329/4/5
f 332/4/5 330/4/5 331/4/5
f 336/4/5 334/4/5 333/4/5
f 337/4/5 336/4/5 335/4/5
f 338/4/5 334/4/5 336/4/5
f 338/4/5 336/4/5 337/4/5
f 341/4/5 340/4/5 339/4/5
f 342/4/5 340/4/5 341/4/5
f 343/4/5 340/4/5 342/4/5
f 344/4/5 340/4/5 343/4/5
f 347/4/5 346/4/5 345/4/5
f 348/4/5 346/4/5 347/4/5
f 349/4/5 347/4/5 345/4/5
f 350/4/5 347/4/5 349/4/5
f 353/4/5 352/4/5 351/4/5
f 355/4/5 353/4/5 351/4/5
f 355/4/5 354/4/5 353/4/5
f 356/4/5 354/4/5 355/4/5
f 357/6/6 358/6/6 359/6/6
f 357/6/6 359/6/6 361/6/6
f 359/6/6 360/6/6 361/6/6
f 361/6/6 360/6/6 362/6/6
f 363/7/6 364/7/6 365/7/6
f 365/7/6 364/7/6 366/7/6
f 366/7/6 364/7/6 367/7/6
f 367/7/6 364/7/6 368/7/6
f 369/6/6 370/6/6 371/6/6
f 371/6/6 370/6/6 372/6/6
f 369/6/6 371/6/6 373/6/6
f 373/6/6 371/6/6 374/6/6
f 375/6/6 376/6/6 377/6/6
f 375/6/6 377/6/6 379/6/6
f 377/6/6 378/6/6 379/6/6
f 379/6/6 378/6/6 380/6/6
f 381/7/6 382/7/6 384/7/6
f 383/7/6 384/7/6 385/7/6
f 384/7/6 382/7/6 386/7/6
f 385/7/6 384/7/6 386/7/6
f 387/4/6 388/4/6 389/4/6
f 389/4/6 388/4/6 390/4/6
f 387/4/6 389/4/6 391/4/6
f 390/4/6 388/4/6 392/4/6
f 387/4/6 391/4/6 393/4/6
f 391/4/6 392/4/6 393/4/6
f 392/4/6 388/4/6 394/4/6
f 393/4/6 392/4/6 394/4/6
f 395/4/6 396/4/6 397/4/6
f 397/4/6 396/4/6 398/4/6
f 395/4/6 397/4/6 399/4/6
f 398/4/6 396/4/6 400/4/6
f 395/4/6 399/4/6 401/4/6
f 399/4/6 400/4/6 401/4/6
f 400/4/6 396/4/6 402/4/6
f 401/4/6 400/4/6 402/4/6
f 403/4/6 404/4/6 405/4/6
f 405/4/6 404/4/6 406/4/6
