# MagicaVoxel @ Ephtracy

# group
o 

# material
mtllib tree_1.mtl
usemtl palette

# normals
vn -1 0 0
vn 1 0 0
vn 0 0 1
vn 0 0 -1
vn 0 -1 0
vn 0 1 0

# texcoords
vt 0.939453 0.5
vt 0.943359 0.5
vt 0.970703 0.5
vt 0.978516 0.5
vt 0.982422 0.5
vt 0.986328 0.5
vt 0.990234 0.5
vt 0.994141 0.5

# verts
v -0.5 1.1 -0.2
v -0.5 1.1 -0.5
v -0.5 1.3 -0.4
v -0.5 1.3 -0.5
v -0.5 1.4 -0.2
v -0.5 1.4 -0.4
v -0.5 1.5 0.5
v -0.5 1.5 0.3
v -0.5 1.5 -0.2
v -0.5 1.5 -0.5
v -0.5 1.7 0.5
v -0.5 1.7 0.4
v -0.5 1.8 0.4
v -0.5 1.8 0.3
v -0.5 1.9 0.5
v -0.5 1.9 0.3
v -0.4 0.7 0.4
v -0.4 0.7 -0.4
v -0.4 1.1 0.4
v -0.4 1.1 -0.2
v -0.4 1.1 -0.4
v -0.4 1.2 0.4
v -0.4 1.2 -0.2
v -0.4 1.3 0.4
v -0.4 1.3 -0.2
v -0.4 1.4 0.4
v -0.4 1.4 -0.2
v -0.4 1.5 0.4
v -0.4 1.5 0.3
v -0.4 1.5 -0.2
v -0.4 1.5 -0.4
v -0.4 1.6 0.3
v -0.4 1.6 -0.4
v -0.4 1.8 0.3
v -0.4 1.9 0.4
v -0.4 1.9 0.3
v -0.4 2.2 0.4
v -0.4 2.2 -0.4
v -0.2 0 0.2
v -0.2 0 -0.2
v -0.2 0.7 0.2
v -0.2 0.7 -0.2
v 0.2 0.9 0.5
v 0.2 0.9 0.4
v 0.2 1.1 0.4
v 0.2 1.2 0.4
v 0.2 1.2 -0.4
v 0.2 1.2 -0.5
v 0.2 1.3 0.5
v 0.2 1.3 0.4
v 0.2 1.3 -0.4
v 0.2 1.4 0.5
v 0.2 1.4 0.4
v 0.2 1.4 -0.4
v 0.2 1.5 -0.4
v 0.2 1.6 -0.4
v 0.2 1.8 -0.4
v 0.2 1.8 -0.5
v 0.2 1.9 -0.4
v 0.2 1.9 -0.5
v -0.3 1.5 0.5
v -0.3 1.5 0.4
v -0.3 1.6 0.4
v -0.3 1.8 0.5
v -0.3 1.8 0.4
v -0.3 1.9 0.5
v -0.3 1.9 0.4
v -0.2 1.1 -0.4
v -0.2 1.1 -0.5
v -0.2 1.2 -0.4
v -0.2 1.3 -0.4
v -0.2 1.4 -0.4
v -0.2 1.4 -0.5
v -0.2 1.5 -0.4
v -0.2 1.5 -0.5
v 0.2 0 0.2
v 0.2 0 -0.2
v 0.2 0.7 0.2
v 0.2 0.7 -0.2
v 0.4 0.7 0.4
v 0.4 0.7 -0.4
v 0.4 0.9 0.4
v 0.4 0.9 0.2
v 0.4 1.1 0.2
v 0.4 1.1 -0.4
v 0.4 1.2 0.2
v 0.4 1.2 -0.3
v 0.4 1.2 -0.4
v 0.4 1.3 0.2
v 0.4 1.3 -0.3
v 0.4 1.4 0.4
v 0.4 1.4 0.2
v 0.4 1.4 -0.3
v 0.4 1.5 0.4
v 0.4 1.5 -0.3
v 0.4 1.6 0.4
v 0.4 1.6 -0.3
v 0.4 1.8 -0.3
v 0.4 1.9 -0.3
v 0.4 1.9 -0.4
v 0.4 2.2 0.4
v 0.4 2.2 -0.4
v 0.5 0.9 0.5
v 0.5 0.9 0.2
v 0.5 1.1 0.5
v 0.5 1.1 0.4
v 0.5 1.2 0.4
v 0.5 1.2 0.3
v 0.5 1.2 -0.3
v 0.5 1.2 -0.5
v 0.5 1.3 0.3
v 0.5 1.3 0.2
v 0.5 1.4 0.5
v 0.5 1.4 0.2
v 0.5 1.6 -0.4
v 0.5 1.6 -0.5
v 0.5 1.8 -0.3
v 0.5 1.8 -0.4
v 0.5 1.9 -0.3
v 0.5 1.9 -0.5
v -0.5 1.5 0.5
v -0.5 1.7 0.5
v -0.5 1.9 0.5
v -0.4 1.7 0.5
v -0.4 1.8 0.5
v -0.3 1.5 0.5
v -0.3 1.8 0.5
v -0.3 1.9 0.5
v 0.2 0.9 0.5
v 0.2 1.3 0.5
v 0.2 1.4 0.5
v 0.3 1.2 0.5
v 0.3 1.3 0.5
v 0.4 1.1 0.5
v 0.4 1.2 0.5
v 0.5 0.9 0.5
v 0.5 1.1 0.5
v 0.5 1.4 0.5
v -0.4 0.7 0.4
v -0.4 1.1 0.4
v -0.4 1.2 0.4
v -0.4 1.3 0.4
v -0.4 1.4 0.4
v -0.4 1.5 0.4
v -0.4 1.9 0.4
v -0.4 2.2 0.4
v -0.3 1.5 0.4
v -0.3 1.6 0.4
v -0.3 1.8 0.4
v -0.3 1.9 0.4
v 0.2 0.9 0.4
v 0.2 1.1 0.4
v 0.2 1.2 0.4
v 0.2 1.3 0.4
v 0.2 1.4 0.4
v 0.4 0.7 0.4
v 0.4 0.9 0.4
v 0.4 1.4 0.4
v 0.4 1.5 0.4
v 0.4 1.6 0.4
v 0.4 2.2 0.4
v -0.2 0 0.2
v -0.2 0.7 0.2
v 0.2 0 0.2
v 0.2 0.7 0.2
v -0.5 1.1 -0.2
v -0.5 1.4 -0.2
v -0.5 1.5 -0.2
v -0.4 1.1 -0.2
v -0.4 1.2 -0.2
v -0.4 1.3 -0.2
v -0.4 1.4 -0.2
v -0.4 1.5 -0.2
v 0.4 1.2 -0.3
v 0.4 1.3 -0.3
v 0.4 1.4 -0.3
v 0.4 1.5 -0.3
v 0.4 1.6 -0.3
v 0.4 1.8 -0.3
v 0.4 1.9 -0.3
v 0.5 1.2 -0.3
v 0.5 1.8 -0.3
v 0.5 1.9 -0.3
v -0.5 1.5 0.3
v -0.5 1.8 0.3
v -0.5 1.9 0.3
v -0.4 1.5 0.3
v -0.4 1.6 0.3
v -0.4 1.8 0.3
v -0.4 1.9 0.3
v 0.4 0.9 0.2
v 0.4 1.1 0.2
v 0.4 1.2 0.2
v 0.4 1.3 0.2
v 0.4 1.4 0.2
v 0.5 0.9 0.2
v 0.5 1.3 0.2
v 0.5 1.4 0.2
v -0.2 0 -0.2
v -0.2 0.7 -0.2
v 0.2 0 -0.2
v 0.2 0.7 -0.2
v -0.4 0.7 -0.4
v -0.4 1.1 -0.4
v -0.4 1.5 -0.4
v -0.4 1.6 -0.4
v -0.4 2.2 -0.4
v -0.2 1.1 -0.4
v -0.2 1.2 -0.4
v -0.2 1.3 -0.4
v -0.2 1.4 -0.4
v -0.2 1.5 -0.4
v 0.2 1.2 -0.4
v 0.2 1.3 -0.4
v 0.2 1.4 -0.4
v 0.2 1.5 -0.4
v 0.2 1.6 -0.4
v 0.2 1.8 -0.4
v 0.2 1.9 -0.4
v 0.4 0.7 -0.4
v 0.4 1.1 -0.4
v 0.4 1.2 -0.4
v 0.4 1.9 -0.4
v 0.4 2.2 -0.4
v -0.5 1.1 -0.5
v -0.5 1.3 -0.5
v -0.5 1.5 -0.5
v -0.4 1.3 -0.5
v -0.4 1.4 -0.5
v -0.2 1.1 -0.5
v -0.2 1.4 -0.5
v -0.2 1.5 -0.5
v 0.2 1.2 -0.5
v 0.2 1.8 -0.5
v 0.2 1.9 -0.5
v 0.3 1.7 -0.5
v 0.3 1.8 -0.5
v 0.4 1.6 -0.5
v 0.4 1.7 -0.5
v 0.5 1.2 -0.5
v 0.5 1.6 -0.5
v 0.5 1.9 -0.5
v -0.2 0 0.2
v 0.2 0 0.2
v -0.2 0 -0.2
v 0.2 0 -0.2
v -0.4 0.7 0.4
v 0.4 0.7 0.4
v -0.2 0.7 0.2
v 0.2 0.7 0.2
v -0.2 0.7 -0.2
v 0.2 0.7 -0.2
v -0.4 0.7 -0.4
v 0.4 0.7 -0.4
v 0.2 0.9 0.5
v 0.5 0.9 0.5
v 0.2 0.9 0.4
v 0.4 0.9 0.4
v 0.4 0.9 0.2
v 0.5 0.9 0.2
v -0.5 1.1 -0.2
v -0.4 1.1 -0.2
v -0.4 1.1 -0.4
v -0.2 1.1 -0.4
v -0.5 1.1 -0.5
v -0.2 1.1 -0.5
v 0.4 1.2 -0.3
v 0.5 1.2 -0.3
v 0.2 1.2 -0.4
v 0.4 1.2 -0.4
v 0.2 1.2 -0.5
v 0.5 1.2 -0.5
v -0.5 1.5 0.5
v -0.3 1.5 0.5
v -0.4 1.5 0.4
v -0.3 1.5 0.4
v -0.5 1.5 0.3
v -0.4 1.5 0.3
v 0.2 1.4 0.5
v 0.5 1.4 0.5
v 0.2 1.4 0.4
v 0.4 1.4 0.4
v 0.4 1.4 0.2
v 0.5 1.4 0.2
v -0.5 1.5 -0.2
v -0.4 1.5 -0.2
v -0.4 1.5 -0.4
v -0.2 1.5 -0.4
v -0.5 1.5 -0.5
v -0.2 1.5 -0.5
v -0.5 1.9 0.5
v -0.3 1.9 0.5
v -0.4 1.9 0.4
v -0.3 1.9 0.4
v -0.5 1.9 0.3
v -0.4 1.9 0.3
v 0.4 1.9 -0.3
v 0.5 1.9 -0.3
v 0.2 1.9 -0.4
v 0.4 1.9 -0.4
v 0.2 1.9 -0.5
v 0.5 1.9 -0.5
v -0.4 2.2 0.4
v 0.4 2.2 0.4
v -0.4 2.2 -0.4
v 0.4 2.2 -0.4

# faces
f 3/4/1 2/4/1 1/4/1
f 4/4/1 2/4/1 3/4/1
f 5/4/1 3/4/1 1/4/1
f 6/6/1 4/6/1 3/6/1
f 6/4/1 3/4/1 5/4/1
f 9/6/1 6/6/1 5/6/1
f 10/6/1 4/6/1 6/6/1
f 10/6/1 6/6/1 9/6/1
f 11/4/1 8/4/1 7/4/1
f 12/4/1 8/4/1 11/4/1
f 13/6/1 12/6/1 11/6/1
f 13/4/1 8/4/1 12/4/1
f 14/4/1 8/4/1 13/4/1
f 15/6/1 13/6/1 11/6/1
f 15/6/1 14/6/1 13/6/1
f 16/6/1 14/6/1 15/6/1
f 19/3/1 18/3/1 17/3/1
f 20/3/1 18/3/1 19/3/1
f 21/3/1 18/3/1 20/3/1
f 22/1/1 20/1/1 19/1/1
f 23/1/1 20/1/1 22/1/1
f 24/8/1 23/8/1 22/8/1
f 25/8/1 23/8/1 24/8/1
f 26/7/1 25/7/1 24/7/1
f 27/7/1 25/7/1 26/7/1
f 28/6/1 27/6/1 26/6/1
f 29/6/1 27/6/1 28/6/1
f 30/6/1 27/6/1 29/6/1
f 32/5/1 30/5/1 29/5/1
f 32/5/1 31/5/1 30/5/1
f 33/5/1 31/5/1 32/5/1
f 34/4/1 33/4/1 32/4/1
f 36/4/1 33/4/1 34/4/1
f 37/4/1 36/4/1 35/4/1
f 38/4/1 33/4/1 36/4/1
f 38/4/1 36/4/1 37/4/1
f 41/2/1 40/2/1 39/2/1
f 42/2/1 40/2/1 41/2/1
f 45/4/1 44/4/1 43/4/1
f 46/4/1 45/4/1 43/4/1
f 49/4/1 46/4/1 43/4/1
f 50/4/1 46/4/1 49/4/1
f 51/4/1 48/4/1 47/4/1
f 52/6/1 50/6/1 49/6/1
f 53/6/1 50/6/1 52/6/1
f 54/4/1 48/4/1 51/4/1
f 55/4/1 48/4/1 54/4/1
f 56/4/1 48/4/1 55/4/1
f 57/4/1 48/4/1 56/4/1
f 58/4/1 48/4/1 57/4/1
f 59/6/1 58/6/1 57/6/1
f 60/6/1 58/6/1 59/6/1
f 61/4/2 62/4/2 63/4/2
f 61/4/2 63/4/2 64/4/2
f 64/4/2 63/4/2 65/4/2
f 64/6/2 65/6/2 66/6/2
f 66/6/2 65/6/2 67/6/2
f 68/4/2 69/4/2 70/4/2
f 70/4/2 69/4/2 71/4/2
f 71/4/2 69/4/2 72/4/2
f 72/4/2 69/4/2 73/4/2
f 72/6/2 73/6/2 74/6/2
f 74/6/2 73/6/2 75/6/2
f 76/2/2 77/2/2 78/2/2
f 78/2/2 77/2/2 79/2/2
f 80/3/2 81/3/2 82/3/2
f 82/3/2 81/3/2 83/3/2
f 83/3/2 81/3/2 84/3/2
f 84/3/2 81/3/2 85/3/2
f 84/1/2 85/1/2 86/1/2
f 86/1/2 85/1/2 87/1/2
f 87/1/2 85/1/2 88/1/2
f 86/8/2 87/8/2 89/8/2
f 89/8/2 87/8/2 90/8/2
f 89/7/2 90/7/2 92/7/2
f 92/7/2 90/7/2 93/7/2
f 91/6/2 92/6/2 94/6/2
f 92/6/2 93/6/2 94/6/2
f 94/6/2 93/6/2 95/6/2
f 94/5/2 95/5/2 96/5/2
f 96/5/2 95/5/2 97/5/2
f 96/4/2 97/4/2 98/4/2
f 96/4/2 98/4/2 99/4/2
f 96/4/2 99/4/2 101/4/2
f 99/4/2 100/4/2 101/4/2
f 101/4/2 100/4/2 102/4/2
f 103/4/2 104/4/2 105/4/2
f 105/4/2 104/4/2 106/4/2
f 105/6/2 106/6/2 107/6/2
f 106/4/2 104/4/2 107/4/2
f 107/4/2 104/4/2 108/4/2
f 107/6/2 108/6/2 111/6/2
f 108/4/2 104/4/2 111/4/2
f 111/4/2 104/4/2 112/4/2
f 105/6/2 107/6/2 113/6/2
f 107/6/2 111/6/2 113/6/2
f 111/6/2 112/6/2 113/6/2
f 113/6/2 112/6/2 114/6/2
f 109/4/2 110/4/2 115/4/2
f 115/4/2 110/4/2 116/4/2
f 109/4/2 115/4/2 117/4/2
f 115/6/2 116/6/2 118/6/2
f 117/4/2 115/4/2 118/4/2
f 117/6/2 118/6/2 119/6/2
f 118/6/2 116/6/2 120/6/2
f 119/6/2 118/6/2 120/6/2
f 124/4/3 122/4/3 121/4/3
f 124/6/3 123/6/3 122/6/3
f 125/6/3 123/6/3 124/6/3
f 126/4/3 124/4/3 121/4/3
f 126/4/3 125/4/3 124/4/3
f 127/6/3 123/6/3 125/6/3
f 127/4/3 125/4/3 126/4/3
f 128/6/3 123/6/3 127/6/3
f 132/4/3 130/4/3 129/4/3
f 133/6/3 131/6/3 130/6/3
f 133/4/3 130/4/3 132/4/3
f 134/4/3 132/4/3 129/4/3
f 135/6/3 133/6/3 132/6/3
f 135/4/3 132/4/3 134/4/3
f 136/4/3 134/4/3 129/4/3
f 137/6/3 135/6/3 134/6/3
f 137/4/3 134/4/3 136/4/3
f 138/6/3 131/6/3 133/6/3
f 138/6/3 135/6/3 137/6/3
f 138/6/3 133/6/3 135/6/3
f 147/6/3 144/6/3 143/6/3
f 150/4/3 146/4/3 145/4/3
f 151/3/3 140/3/3 139/3/3
f 152/1/3 141/1/3 140/1/3
f 152/3/3 140/3/3 151/3/3
f 153/8/3 142/8/3 141/8/3
f 153/1/3 141/1/3 152/1/3
f 154/7/3 143/7/3 142/7/3
f 154/8/3 142/8/3 153/8/3
f 155/6/3 147/6/3 143/6/3
f 155/7/3 143/7/3 154/7/3
f 156/3/3 151/3/3 139/3/3
f 157/3/3 151/3/3 156/3/3
f 158/6/3 147/6/3 155/6/3
f 159/5/3 148/5/3 147/5/3
f 159/6/3 147/6/3 158/6/3
f 160/4/3 150/4/3 149/4/3
f 160/5/3 148/5/3 159/5/3
f 160/4/3 149/4/3 148/4/3
f 161/4/3 146/4/3 150/4/3
f 161/4/3 150/4/3 160/4/3
f 164/2/3 163/2/3 162/2/3
f 165/2/3 163/2/3 164/2/3
f 169/4/3 167/4/3 166/4/3
f 170/4/3 167/4/3 169/4/3
f 171/4/3 167/4/3 170/4/3
f 172/6/3 168/6/3 167/6/3
f 172/4/3 167/4/3 171/4/3
f 173/6/3 168/6/3 172/6/3
f 181/4/3 175/4/3 174/4/3
f 181/4/3 176/4/3 175/4/3
f 181/4/3 179/4/3 178/4/3
f 181/4/3 178/4/3 177/4/3
f 181/4/3 177/4/3 176/4/3
f 182/6/3 180/6/3 179/6/3
f 182/4/3 179/4/3 181/4/3
f 183/6/3 180/6/3 182/6/3
f 184/4/4 185/4/4 187/4/4
f 187/4/4 185/4/4 188/4/4
f 185/6/4 186/6/4 189/6/4
f 188/4/4 185/4/4 189/4/4
f 189/6/4 186/6/4 190/6/4
f 191/4/4 192/4/4 196/4/4
f 192/4/4 193/4/4 196/4/4
f 193/4/4 194/4/4 196/4/4
f 194/6/4 195/6/4 197/6/4
f 196/4/4 194/4/4 197/4/4
f 197/6/4 195/6/4 198/6/4
f 199/2/4 200/2/4 201/2/4
f 201/2/4 200/2/4 202/2/4
f 203/3/4 204/3/4 208/3/4
f 205/5/4 206/5/4 212/5/4
f 208/1/4 209/1/4 213/1/4
f 209/8/4 210/8/4 213/8/4
f 210/7/4 211/7/4 214/7/4
f 213/8/4 210/8/4 214/8/4
f 211/6/4 212/6/4 215/6/4
f 214/7/4 211/7/4 215/7/4
f 212/5/4 206/5/4 216/5/4
f 215/6/4 212/6/4 216/6/4
f 206/4/4 207/4/4 217/4/4
f 216/5/4 206/5/4 217/5/4
f 217/4/4 207/4/4 218/4/4
f 218/4/4 207/4/4 219/4/4
f 203/3/4 208/3/4 220/3/4
f 208/1/4 213/1/4 221/1/4
f 220/3/4 208/3/4 221/3/4
f 221/1/4 213/1/4 222/1/4
f 219/4/4 207/4/4 223/4/4
f 223/4/4 207/4/4 224/4/4
f 225/4/4 226/4/4 228/4/4
f 226/6/4 227/6/4 228/6/4
f 228/6/4 227/6/4 229/6/4
f 225/4/4 228/4/4 230/4/4
f 228/4/4 229/4/4 230/4/4
f 229/6/4 227/6/4 231/6/4
f 230/4/4 229/4/4 231/4/4
f 231/6/4 227/6/4 232/6/4
f 233/4/4 234/4/4 236/4/4
f 234/6/4 235/6/4 237/6/4
f 236/4/4 234/4/4 237/4/4
f 233/4/4 236/4/4 238/4/4
f 236/6/4 237/6/4 239/6/4
f 238/4/4 236/4/4 239/4/4
f 233/4/4 238/4/4 240/4/4
f 238/6/4 239/6/4 241/6/4
f 240/4/4 238/4/4 241/4/4
f 237/6/4 235/6/4 242/6/4
f 241/6/4 239/6/4 242/6/4
f 239/6/4 237/6/4 242/6/4
f 245/2/5 244/2/5 243/2/5
f 246/2/5 244/2/5 245/2/5
f 249/3/5 248/3/5 247/3/5
f 250/3/5 248/3/5 249/3/5
f 251/3/5 249/3/5 247/3/5
f 252/3/5 248/3/5 250/3/5
f 253/3/5 251/3/5 247/3/5
f 253/3/5 252/3/5 251/3/5
f 254/3/5 248/3/5 252/3/5
f 254/3/5 252/3/5 253/3/5
f 257/4/5 256/4/5 255/4/5
f 258/4/5 256/4/5 257/4/5
f 259/4/5 256/4/5 258/4/5
f 260/4/5 256/4/5 259/4/5
f 263/4/5 262/4/5 261/4/5
f 265/4/5 263/4/5 261/4/5
f 265/4/5 264/4/5 263/4/5
f 266/4/5 264/4/5 265/4/5
f 270/4/5 268/4/5 267/4/5
f 271/4/5 270/4/5 269/4/5
f 272/4/5 268/4/5 270/4/5
f 272/4/5 270/4/5 271/4/5
f 275/4/5 274/4/5 273/4/5
f 276/4/5 274/4/5 275/4/5
f 277/4/5 275/4/5 273/4/5
f 278/4/5 275/4/5 277/4/5
f 279/6/6 280/6/6 281/6/6
f 281/6/6 280/6/6 282/6/6
f 282/6/6 280/6/6 283/6/6
f 283/6/6 280/6/6 284/6/6
f 285/6/6 286/6/6 287/6/6
f 285/6/6 287/6/6 289/6/6
f 287/6/6 288/6/6 289/6/6
f 289/6/6 288/6/6 290/6/6
f 291/6/6 292/6/6 293/6/6
f 293/6/6 292/6/6 294/6/6
f 291/6/6 293/6/6 295/6/6
f 295/6/6 293/6/6 296/6/6
f 297/6/6 298/6/6 300/6/6
f 299/6/6 300/6/6 301/6/6
f 300/6/6 298/6/6 302/6/6
f 301/6/6 300/6/6 302/6/6
f 303/4/6 304/4/6 305/4/6
f 305/4/6 304/4/6 306/4/6
