# MagicaVoxel @ Ephtracy

# group
o 

# material
mtllib desert_stone_1.mtl
usemtl palette

# normals
vn -1 0 0
vn 1 0 0
vn 0 0 1
vn 0 0 -1
vn 0 -1 0
vn 0 1 0

# texcoords
vt 0.982422 0.5
vt 0.986328 0.5

# verts
v -1 0 1
v -1 0 -1
v -1 0.3 1
v -1 0.3 0.3
v -1 0.3 0.1
v -1 0.3 -1
v -1 0.4 1
v -1 0.4 0.3
v -1 0.4 0.1
v -1 0.4 -1
v -1 0.5 0.3
v -1 0.5 0.1
v -1 0.6 0.5
v -1 0.6 0
v -1 0.6 -1
v -1 0.7 1
v -1 0.7 0.5
v -1 0.7 0
v -1 0.8 1
v -1 0.8 0.5
v -1 0.8 0
v -0.9 0.6 0
v -0.9 0.6 -0.9
v -0.9 0.6 -1
v -0.9 0.7 0
v -0.9 0.7 -0.9
v -0.9 0.7 -1
v -0.8 0.7 0
v -0.8 0.7 -0.9
v -0.8 0.7 -1
v -0.8 0.8 0
v -0.8 0.8 -1
v -0.7 0.8 0.9
v -0.7 0.8 -1
v -0.7 0.9 0.9
v -0.7 0.9 -1
v 0.3 0.5 -0.7
v 0.3 0.5 -0.9
v 0.3 0.5 -1
v 0.3 0.6 -0.6
v 0.3 0.6 -0.7
v 0.3 0.7 -0.5
v 0.3 0.7 -0.6
v 0.3 0.7 -0.9
v 0.3 0.7 -1
v 0.3 0.8 -0.4
v 0.3 0.8 -0.5
v 0.3 0.9 -0.4
v 0.3 0.9 -1
v 0.4 0.8 -0.3
v 0.4 0.8 -0.4
v 0.4 0.9 -0.3
v 0.4 0.9 -0.4
v 0.5 0.7 -0.3
v 0.5 0.7 -0.5
v 0.5 0.8 -0.3
v 0.5 0.8 -0.5
v 0.6 0.6 -0.3
v 0.6 0.6 -0.6
v 0.6 0.7 -0.3
v 0.6 0.7 -0.6
v 0.7 0.5 -0.3
v 0.7 0.5 -0.7
v 0.7 0.6 -0.3
v 0.7 0.6 -0.7
v 0.8 0.8 0.9
v 0.8 0.8 0
v 0.8 0.9 0.9
v 0.8 0.9 0
v 0.9 0.8 0
v 0.9 0.8 -0.3
v 0.9 0.9 0
v 0.9 0.9 -0.3
v 1 0 1
v 1 0 -1
v 1 0.2 -0.3
v 1 0.2 -0.7
v 1 0.3 1
v 1 0.3 0.5
v 1 0.3 0.1
v 1 0.3 -0.3
v 1 0.3 -0.7
v 1 0.3 -1
v 1 0.4 1
v 1 0.4 0.5
v 1 0.4 0.1
v 1 0.4 -0.5
v 1 0.4 -1
v 1 0.5 0.5
v 1 0.5 0
v 1 0.5 -0.1
v 1 0.5 -0.3
v 1 0.5 -0.5
v 1 0.5 -1
v 1 0.6 1
v 1 0.6 0
v 1 0.6 -0.1
v 1 0.6 -0.3
v 1 0.7 1
v 1 0.7 -0.3
v 1 0.8 1
v 1 0.8 -0.3
v -1 0 1
v -1 0.3 1
v -1 0.4 1
v -1 0.7 1
v -1 0.8 1
v -0.7 0.2 1
v -0.7 0.3 1
v -0.7 0.4 1
v -0.4 0.2 1
v -0.4 0.3 1
v -0.4 0.4 1
v 0 0.3 1
v 0 0.4 1
v 0 0.5 1
v 0 0.6 1
v 0 0.7 1
v 0 0.8 1
v 0.7 0.3 1
v 0.7 0.4 1
v 0.7 0.5 1
v 1 0 1
v 1 0.3 1
v 1 0.4 1
v 1 0.6 1
v 1 0.7 1
v 1 0.8 1
v -0.7 0.8 0.9
v -0.7 0.9 0.9
v 0 0.8 0.9
v 0.8 0.8 0.9
v 0.8 0.9 0.9
v 0.8 0.8 0
v 0.8 0.9 0
v 0.9 0.8 0
v 0.9 0.9 0
v -1 0.6 0
v -1 0.7 0
v -1 0.8 0
v -0.9 0.6 0
v -0.9 0.7 0
v -0.8 0.7 0
v -0.8 0.8 0
v 0.4 0.8 -0.3
v 0.4 0.9 -0.3
v 0.5 0.7 -0.3
v 0.5 0.8 -0.3
v 0.6 0.6 -0.3
v 0.6 0.7 -0.3
v 0.7 0.5 -0.3
v 0.7 0.6 -0.3
v 0.9 0.5 -0.3
v 0.9 0.6 -0.3
v 0.9 0.7 -0.3
v 0.9 0.8 -0.3
v 0.9 0.9 -0.3
v 1 0.5 -0.3
v 1 0.6 -0.3
v 1 0.7 -0.3
v 1 0.8 -0.3
v 0.3 0.8 -0.4
v 0.3 0.9 -0.4
v 0.4 0.8 -0.4
v 0.4 0.9 -0.4
v 0.3 0.7 -0.5
v 0.3 0.8 -0.5
v 0.5 0.7 -0.5
v 0.5 0.8 -0.5
v 0.3 0.6 -0.6
v 0.3 0.7 -0.6
v 0.6 0.6 -0.6
v 0.6 0.7 -0.6
v 0.3 0.5 -0.7
v 0.3 0.6 -0.7
v 0.7 0.5 -0.7
v 0.7 0.6 -0.7
v -1 0 -1
v -1 0.3 -1
v -1 0.4 -1
v -1 0.6 -1
v -0.9 0.6 -1
v -0.9 0.7 -1
v -0.8 0.5 -1
v -0.8 0.6 -1
v -0.8 0.7 -1
v -0.8 0.8 -1
v -0.7 0.2 -1
v -0.7 0.3 -1
v -0.7 0.8 -1
v -0.7 0.9 -1
v -0.6 0.5 -1
v -0.6 0.6 -1
v -0.4 0.2 -1
v -0.4 0.3 -1
v -0.4 0.7 -1
v -0.4 0.8 -1
v -0.2 0.2 -1
v -0.2 0.3 -1
v -0.2 0.7 -1
v -0.2 0.8 -1
v 0 0.2 -1
v 0 0.3 -1
v 0 0.5 -1
v 0 0.6 -1
v 0.3 0.4 -1
v 0.3 0.5 -1
v 0.3 0.7 -1
v 0.3 0.9 -1
v 0.5 0.4 -1
v 0.5 0.5 -1
v 0.7 0.2 -1
v 0.7 0.3 -1
v 0.9 0.2 -1
v 0.9 0.3 -1
v 1 0 -1
v 1 0.3 -1
v 1 0.4 -1
v 1 0.5 -1
v -1 0 1
v 1 0 1
v -1 0 -1
v 1 0 -1
v 0.7 0.5 -0.3
v 0.9 0.5 -0.3
v 1 0.5 -0.3
v 0.9 0.5 -0.5
v 1 0.5 -0.5
v 0.3 0.5 -0.7
v 0.7 0.5 -0.7
v 0.3 0.5 -0.9
v 0.5 0.5 -0.9
v 0.3 0.5 -1
v 0.5 0.5 -1
v 1 0.5 -1
v -1 0.6 0
v -0.9 0.6 0
v 0.6 0.6 -0.3
v 0.7 0.6 -0.3
v 0.3 0.6 -0.6
v 0.6 0.6 -0.6
v 0.3 0.6 -0.7
v 0.7 0.6 -0.7
v -0.9 0.6 -0.9
v -1 0.6 -1
v -0.9 0.6 -1
v -0.9 0.7 0
v -0.8 0.7 0
v 0.5 0.7 -0.3
v 0.6 0.7 -0.3
v 0.3 0.7 -0.5
v 0.5 0.7 -0.5
v 0.3 0.7 -0.6
v 0.6 0.7 -0.6
v -0.9 0.7 -0.9
v -0.8 0.7 -0.9
v -0.9 0.7 -1
v -0.8 0.7 -1
v -1 0.8 1
v 0 0.8 1
v 1 0.8 1
v -0.9 0.8 0.9
v -0.7 0.8 0.9
v 0 0.8 0.9
v 0.8 0.8 0.9
v -1 0.8 0.5
v -0.9 0.8 0.5
v -1 0.8 0
v -0.8 0.8 0
v 0.8 0.8 0
v 0.9 0.8 0
v 0.4 0.8 -0.3
v 0.5 0.8 -0.3
v 0.9 0.8 -0.3
v 1 0.8 -0.3
v 0.3 0.8 -0.4
v 0.4 0.8 -0.4
v 0.3 0.8 -0.5
v 0.5 0.8 -0.5
v -0.8 0.8 -1
v -0.7 0.8 -1
v -0.7 0.9 0.9
v 0.8 0.9 0.9
v 0.8 0.9 0
v 0.9 0.9 0
v 0.4 0.9 -0.3
v 0.9 0.9 -0.3
v 0.3 0.9 -0.4
v 0.4 0.9 -0.4
v -0.7 0.9 -1
v 0.3 0.9 -1

# faces
f 3/1/1 2/1/1 1/1/1
f 4/1/1 2/1/1 3/1/1
f 5/1/1 2/1/1 4/1/1
f 6/1/1 2/1/1 5/1/1
f 7/2/1 4/2/1 3/2/1
f 8/1/1 5/1/1 4/1/1
f 8/2/1 4/2/1 7/2/1
f 9/2/1 6/2/1 5/2/1
f 9/1/1 5/1/1 8/1/1
f 10/2/1 6/2/1 9/2/1
f 11/1/1 8/1/1 7/1/1
f 11/2/1 9/2/1 8/2/1
f 12/1/1 10/1/1 9/1/1
f 12/2/1 9/2/1 11/2/1
f 13/1/1 11/1/1 7/1/1
f 13/1/1 12/1/1 11/1/1
f 14/1/1 10/1/1 12/1/1
f 14/1/1 12/1/1 13/1/1
f 15/1/1 10/1/1 14/1/1
f 16/1/1 13/1/1 7/1/1
f 17/2/1 14/2/1 13/2/1
f 17/1/1 13/1/1 16/1/1
f 18/2/1 14/2/1 17/2/1
f 19/2/1 17/2/1 16/2/1
f 20/1/1 18/1/1 17/1/1
f 20/2/1 17/2/1 19/2/1
f 21/1/1 18/1/1 20/1/1
f 25/1/1 23/1/1 22/1/1
f 26/2/1 24/2/1 23/2/1
f 26/1/1 23/1/1 25/1/1
f 27/2/1 24/2/1 26/2/1
f 31/1/1 29/1/1 28/1/1
f 31/1/1 30/1/1 29/1/1
f 32/1/1 30/1/1 31/1/1
f 35/1/1 34/1/1 33/1/1
f 36/1/1 34/1/1 35/1/1
f 37/1/2 38/1/2 41/1/2
f 40/1/2 41/1/2 43/1/2
f 38/2/2 39/2/2 44/2/2
f 41/1/2 38/1/2 44/1/2
f 43/1/2 41/1/2 44/1/2
f 44/2/2 39/2/2 45/2/2
f 42/1/2 43/1/2 47/1/2
f 43/1/2 44/1/2 47/1/2
f 44/1/2 45/1/2 47/1/2
f 46/1/2 47/1/2 48/1/2
f 47/1/2 45/1/2 49/1/2
f 48/1/2 47/1/2 49/1/2
f 50/1/2 51/1/2 52/1/2
f 52/1/2 51/1/2 53/1/2
f 54/1/2 55/1/2 56/1/2
f 56/1/2 55/1/2 57/1/2
f 58/1/2 59/1/2 60/1/2
f 60/1/2 59/1/2 61/1/2
f 62/1/2 63/1/2 64/1/2
f 64/1/2 63/1/2 65/1/2
f 66/1/2 67/1/2 68/1/2
f 68/1/2 67/1/2 69/1/2
f 70/1/2 71/1/2 72/1/2
f 72/1/2 71/1/2 73/1/2
f 74/1/2 75/1/2 76/1/2
f 76/1/2 75/1/2 77/1/2
f 74/1/2 76/1/2 78/1/2
f 78/1/2 76/1/2 79/1/2
f 79/1/2 76/1/2 80/1/2
f 76/2/2 77/2/2 81/2/2
f 80/1/2 76/1/2 81/1/2
f 77/1/2 75/1/2 82/1/2
f 81/2/2 77/2/2 82/2/2
f 82/1/2 75/1/2 83/1/2
f 78/2/2 79/2/2 84/2/2
f 79/1/2 80/1/2 85/1/2
f 84/2/2 79/2/2 85/2/2
f 80/2/2 81/2/2 86/2/2
f 85/1/2 80/1/2 86/1/2
f 81/2/2 82/2/2 86/2/2
f 82/2/2 83/2/2 86/2/2
f 86/2/2 83/2/2 87/2/2
f 87/2/2 83/2/2 88/2/2
f 84/1/2 85/1/2 89/1/2
f 85/2/2 86/2/2 89/2/2
f 86/2/2 87/2/2 89/2/2
f 89/2/2 87/2/2 90/2/2
f 90/2/2 87/2/2 91/2/2
f 91/2/2 87/2/2 92/2/2
f 87/1/2 88/1/2 93/1/2
f 92/2/2 87/2/2 93/2/2
f 93/1/2 88/1/2 94/1/2
f 84/1/2 89/1/2 95/1/2
f 89/1/2 90/1/2 95/1/2
f 90/2/2 91/2/2 96/2/2
f 95/1/2 90/1/2 96/1/2
f 91/1/2 92/1/2 97/1/2
f 96/2/2 91/2/2 97/2/2
f 97/1/2 92/1/2 98/1/2
f 95/2/2 96/2/2 99/2/2
f 96/2/2 97/2/2 99/2/2
f 97/2/2 98/2/2 99/2/2
f 99/2/2 98/2/2 100/2/2
f 99/1/2 100/1/2 101/1/2
f 101/1/2 100/1/2 102/1/2
f 108/1/3 104/1/3 103/1/3
f 109/2/3 105/2/3 104/2/3
f 109/1/3 104/1/3 108/1/3
f 110/1/3 106/1/3 105/1/3
f 110/2/3 105/2/3 109/2/3
f 111/1/3 108/1/3 103/1/3
f 111/2/3 109/2/3 108/2/3
f 112/1/3 110/1/3 109/1/3
f 112/2/3 109/2/3 111/2/3
f 113/1/3 106/1/3 110/1/3
f 113/1/3 110/1/3 112/1/3
f 114/1/3 112/1/3 111/1/3
f 114/2/3 113/2/3 112/2/3
f 115/1/3 106/1/3 113/1/3
f 115/2/3 113/2/3 114/2/3
f 116/1/3 106/1/3 115/1/3
f 117/1/3 106/1/3 116/1/3
f 118/2/3 107/2/3 106/2/3
f 118/1/3 106/1/3 117/1/3
f 119/2/3 107/2/3 118/2/3
f 120/1/3 114/1/3 111/1/3
f 120/1/3 115/1/3 114/1/3
f 121/2/3 116/2/3 115/2/3
f 121/1/3 115/1/3 120/1/3
f 122/1/3 117/1/3 116/1/3
f 122/2/3 116/2/3 121/2/3
f 123/1/3 111/1/3 103/1/3
f 123/1/3 120/1/3 111/1/3
f 124/2/3 121/2/3 120/2/3
f 124/1/3 120/1/3 123/1/3
f 125/1/3 122/1/3 121/1/3
f 125/2/3 121/2/3 124/2/3
f 126/1/3 117/1/3 122/1/3
f 126/1/3 122/1/3 125/1/3
f 126/2/3 118/2/3 117/2/3
f 127/1/3 119/1/3 118/1/3
f 127/2/3 118/2/3 126/2/3
f 128/1/3 119/1/3 127/1/3
f 131/1/3 130/1/3 129/1/3
f 132/1/3 130/1/3 131/1/3
f 133/1/3 130/1/3 132/1/3
f 136/1/3 135/1/3 134/1/3
f 137/1/3 135/1/3 136/1/3
f 138/2/4 139/2/4 141/2/4
f 139/1/4 140/1/4 142/1/4
f 141/2/4 139/2/4 142/2/4
f 142/1/4 140/1/4 143/1/4
f 143/1/4 140/1/4 144/1/4
f 145/1/4 146/1/4 148/1/4
f 147/1/4 148/1/4 150/1/4
f 149/1/4 150/1/4 152/1/4
f 151/1/4 152/1/4 153/1/4
f 152/1/4 150/1/4 154/1/4
f 153/1/4 152/1/4 154/1/4
f 150/1/4 148/1/4 155/1/4
f 154/1/4 150/1/4 155/1/4
f 148/1/4 146/1/4 156/1/4
f 155/1/4 148/1/4 156/1/4
f 156/1/4 146/1/4 157/1/4
f 153/1/4 154/1/4 158/1/4
f 154/2/4 155/2/4 159/2/4
f 158/1/4 154/1/4 159/1/4
f 155/1/4 156/1/4 160/1/4
f 159/2/4 155/2/4 160/2/4
f 160/1/4 156/1/4 161/1/4
f 162/1/4 163/1/4 164/1/4
f 164/1/4 163/1/4 165/1/4
f 166/1/4 167/1/4 168/1/4
f 168/1/4 167/1/4 169/1/4
f 170/1/4 171/1/4 172/1/4
f 172/1/4 171/1/4 173/1/4
f 174/1/4 175/1/4 176/1/4
f 176/1/4 175/1/4 177/1/4
f 180/1/4 181/1/4 182/1/4
f 180/1/4 182/1/4 184/1/4
f 182/2/4 183/2/4 185/2/4
f 184/1/4 182/1/4 185/1/4
f 185/2/4 183/2/4 186/2/4
f 178/1/4 179/1/4 188/1/4
f 179/2/4 180/2/4 189/2/4
f 188/1/4 179/1/4 189/1/4
f 186/1/4 187/1/4 190/1/4
f 180/1/4 184/1/4 192/1/4
f 184/2/4 185/2/4 192/2/4
f 185/2/4 186/2/4 192/2/4
f 192/2/4 186/2/4 193/2/4
f 178/1/4 188/1/4 194/1/4
f 188/2/4 189/2/4 194/2/4
f 189/2/4 180/2/4 195/2/4
f 194/2/4 189/2/4 195/2/4
f 193/2/4 186/2/4 196/2/4
f 190/1/4 191/1/4 196/1/4
f 186/1/4 190/1/4 196/1/4
f 196/1/4 191/1/4 197/1/4
f 178/1/4 194/1/4 198/1/4
f 194/1/4 195/1/4 198/1/4
f 195/2/4 180/2/4 199/2/4
f 198/1/4 195/1/4 199/1/4
f 196/2/4 197/2/4 200/2/4
f 193/2/4 196/2/4 200/2/4
f 197/1/4 191/1/4 201/1/4
f 200/2/4 197/2/4 201/2/4
f 178/1/4 198/1/4 202/1/4
f 198/2/4 199/2/4 202/2/4
f 199/2/4 180/2/4 203/2/4
f 202/2/4 199/2/4 203/2/4
f 180/1/4 192/1/4 204/1/4
f 192/1/4 193/1/4 204/1/4
f 193/2/4 200/2/4 205/2/4
f 204/1/4 193/1/4 205/1/4
f 180/1/4 204/1/4 206/1/4
f 203/2/4 180/2/4 206/2/4
f 204/2/4 205/2/4 207/2/4
f 206/1/4 204/1/4 207/1/4
f 205/2/4 200/2/4 208/2/4
f 207/2/4 205/2/4 208/2/4
f 200/1/4 201/1/4 208/1/4
f 201/1/4 191/1/4 209/1/4
f 208/1/4 201/1/4 209/1/4
f 206/2/4 207/2/4 210/2/4
f 203/2/4 206/2/4 210/2/4
f 210/2/4 207/2/4 211/2/4
f 202/1/4 203/1/4 212/1/4
f 178/1/4 202/1/4 212/1/4
f 203/2/4 210/2/4 213/2/4
f 212/1/4 203/1/4 213/1/4
f 178/1/4 212/1/4 214/1/4
f 212/2/4 213/2/4 214/2/4
f 213/2/4 210/2/4 215/2/4
f 214/2/4 213/2/4 215/2/4
f 178/1/4 214/1/4 216/1/4
f 214/1/4 215/1/4 216/1/4
f 215/2/4 210/2/4 217/2/4
f 216/1/4 215/1/4 217/1/4
f 210/1/4 211/1/4 218/1/4
f 217/2/4 210/2/4 218/2/4
f 218/1/4 211/1/4 219/1/4
f 222/1/5 221/1/5 220/1/5
f 223/1/5 221/1/5 222/1/5
f 224/1/6 225/1/6 227/1/6
f 225/2/6 226/2/6 227/2/6
f 227/2/6 226/2/6 228/2/6
f 224/1/6 227/1/6 230/1/6
f 227/1/6 228/1/6 230/1/6
f 229/1/6 230/1/6 231/1/6
f 231/1/6 230/1/6 232/1/6
f 231/2/6 232/2/6 233/2/6
f 232/1/6 230/1/6 234/1/6
f 233/2/6 232/2/6 234/2/6
f 230/1/6 228/1/6 235/1/6
f 234/1/6 230/1/6 235/1/6
f 238/1/6 239/1/6 241/1/6
f 240/1/6 241/1/6 242/1/6
f 241/1/6 239/1/6 243/1/6
f 242/1/6 241/1/6 243/1/6
f 236/1/6 237/1/6 244/1/6
f 236/1/6 244/1/6 245/1/6
f 245/1/6 244/1/6 246/1/6
f 249/1/6 250/1/6 252/1/6
f 251/1/6 252/1/6 253/1/6
f 252/1/6 250/1/6 254/1/6
f 253/1/6 252/1/6 254/1/6
f 247/1/6 248/1/6 255/1/6
f 255/1/6 248/1/6 256/1/6
f 255/2/6 256/2/6 257/2/6
f 257/2/6 256/2/6 258/2/6
f 259/2/6 260/2/6 262/2/6
f 262/2/6 260/2/6 263/2/6
f 260/1/6 261/1/6 264/1/6
f 263/2/6 260/2/6 264/2/6
f 264/1/6 261/1/6 265/1/6
f 259/2/6 262/2/6 266/2/6
f 262/1/6 263/1/6 267/1/6
f 266/2/6 262/2/6 267/2/6
f 266/1/6 267/1/6 268/1/6
f 267/1/6 263/1/6 269/1/6
f 268/1/6 267/1/6 269/1/6
f 265/1/6 261/1/6 270/1/6
f 270/1/6 261/1/6 271/1/6
f 271/1/6 261/1/6 274/1/6
f 274/1/6 261/1/6 275/1/6
f 272/1/6 273/1/6 277/1/6
f 276/1/6 277/1/6 278/1/6
f 277/1/6 273/1/6 279/1/6
f 278/1/6 277/1/6 279/1/6
f 269/1/6 263/1/6 280/1/6
f 280/1/6 263/1/6 281/1/6
f 282/1/6 283/1/6 284/1/6
f 282/1/6 284/1/6 286/1/6
f 284/1/6 285/1/6 286/1/6
f 286/1/6 285/1/6 287/1/6
f 282/1/6 286/1/6 288/1/6
f 288/1/6 286/1/6 289/1/6
f 282/1/6 288/1/6 290/1/6
f 290/1/6 288/1/6 291/1/6
